PathFileType	4	(X/Y/Z)	/Users/itak/Documents/Research/Walk-IL/dataset/trc/00416_00012.trc
DataRate	CameraRate	NumFrames	NumMarkers	Units	OrigDataRate	OrigDataStartFrame	OrigNumFrames
100.000000	100.000000	4	56	mm	100.000000	0	595
Frame#	Time	RPSI			LPSI			L3			STRN			T10			C7			CLAV			RBAK			LBAK			LSHO			LUPA			LAEL			LAOL			LWTS			LWPS			LFRA			LHPS			RSHO			RUPA			RAEL			RAOL			RWTS			RWPS			RFRA			RIFD			RHTS			RHPS			RBHD			LFHD			RFHD			LBHD			LHIP			RASI			LASI			LKNE			LTHI			LANK			LTIP			LTOE			LMT1			LMT5			LHEE			RKNE			RTHI			RANK			RTIP			RTOE			RMT1			RMT5			RHEE			LIFD			LHTS			RHIP			*53			*54			*55			
		X1	Y1	Z1	X2	Y2	Z2	X3	Y3	Z3	X4	Y4	Z4	X5	Y5	Z5	X6	Y6	Z6	X7	Y7	Z7	X8	Y8	Z8	X9	Y9	Z9	X10	Y10	Z10	X11	Y11	Z11	X12	Y12	Z12	X13	Y13	Z13	X14	Y14	Z14	X15	Y15	Z15	X16	Y16	Z16	X17	Y17	Z17	X18	Y18	Z18	X19	Y19	Z19	X20	Y20	Z20	X21	Y21	Z21	X22	Y22	Z22	X23	Y23	Z23	X24	Y24	Z24	X25	Y25	Z25	X26	Y26	Z26	X27	Y27	Z27	X28	Y28	Z28	X29	Y29	Z29	X30	Y30	Z30	X31	Y31	Z31	X32	Y32	Z32	X33	Y33	Z33	X34	Y34	Z34	X35	Y35	Z35	X36	Y36	Z36	X37	Y37	Z37	X38	Y38	Z38	X39	Y39	Z39	X40	Y40	Z40	X41	Y41	Z41	X42	Y42	Z42	X43	Y43	Z43	X44	Y44	Z44	X45	Y45	Z45	X46	Y46	Z46	X47	Y47	Z47	X48	Y48	Z48	X49	Y49	Z49	X50	Y50	Z50	X51	Y51	Z51	X52	Y52	Z52	X53	Y53	Z53	X54	Y54	Z54	X55	Y55	Z55	X56	Y56	Z56	

1	0	-1549.213989257812	992.9721069335938	-541.1871948242188	-1557.311401367188	984.2078247070312	-672.24267578125	-1552.338623046875	1061.415283203125	-605.4393310546875	-1319.015869140625	1211.914428710938	-605.0423583984375	-1563.50341796875	1165.422485351562	-610.3789672851562	-1522.544799804688	1413.620239257812	-619.8387451171875	-1370.8701171875	1330.879028320312	-607.3554077148438	-1570.496337890625	1268.537109375	-553.8511962890625	-1532.746948242188	1377.00244140625	-724.5882568359375	-1442.979858398438	1389.432006835938	-770.0269165039062	-1458.08203125	1272.492309570312	-841.5045166015625	-1427.574584960938	1074.155395507812	-859.254150390625	-1493.605224609375	1053.422241210938	-809.8062744140625	-1321.36572265625	872.3572387695312	-798.014404296875	-1373.774047851562	845.6368408203125	-863.5856323242188	-1404.844970703125	970.000244140625	-862.8583374023438	-1356.984619140625	761.1531982421875	-850.9242553710938	-1470.955444335938	1390.966430664062	-458.9668884277344	-1485.929321289062	1325.984252929688	-400.4237670898438	-1476.662841796875	1063.027587890625	-362.0541687011719	-1499.7509765625	1053.702270507812	-453.3802185058594	-1342.840087890625	851.5049438476562	-395.8188171386719	-1388.457275390625	836.100341796875	-332.6358642578125	-1450.45458984375	997.7742919921875	-346.857421875	-1342.719604492188	672.6868286132812	-382.8705444335938	-1329.078002929688	743.4827270507812	-373.939697265625	-1381.485961914062	749.5291748046875	-331.7375793457031	-1490.078002929688	1603.023559570312	-534.0547485351562	-1334.817016601562	1603.451171875	-658.4159545898438	-1356.734252929688	1609.801879882812	-538.181884765625	-1477.703857421875	1592.906860351562	-695.2183227539062	-1473.083984375	970.4990844726562	-786.9780883789062	-1331.028930664062	973.1187744140625	-486.3805236816406	-1358.242309570312	966.0233154296875	-748.2804565429688	-1435.578735351562	476.9161987304688	-771.6766357421875	-1439.576904296875	619.0357666015625	-781.3990478515625	-1528.760131835938	46.6645622253418	-731.7841796875	-1482.644165039062	246.4584808349609	-765.5676879882812	-1309.662353515625	44.30423355102539	-682.2833251953125	-1388.645141601562	43.52443695068359	-645.6214599609375	-1402.34716796875	42.51807022094727	-749.8773803710938	-1562.293212890625	42.18602752685547	-672.7509765625	-1437.58740234375	477.7474060058594	-443.6718444824219	-1391.095825195312	740.6835327148438	-428.6805419921875	-1494.048950195312	58.85141372680664	-466.9188842773438	-1432.398559570312	351.7617797851562	-456.115478515625	-1315.809204101562	41.05464553833008	-536.228271484375	-1393.913330078125	45.25541687011719	-563.1272583007812	-1409.079833984375	50.17931365966797	-465.8416137695312	-1568.382568359375	45.64282608032227	-516.8887939453125	-1327.6572265625	682.3289794921875	-794.893310546875	-1312.865234375	766.4301147460938	-805.7141723632812	-1462.15283203125	968.2134399414062	-428.6229858398438	nan	nan	nan	nan	nan	nan	nan	nan	nan	
2	0.01	-1549.238647460938	992.97216796875	-541.20751953125	-1557.318969726562	984.2061767578125	-672.2622680664062	-1552.35986328125	1061.416748046875	-605.4599609375	-1319.001220703125	1211.92431640625	-605.0482788085938	-1563.538208007812	1165.426513671875	-610.4042358398438	-1522.559326171875	1413.620239257812	-619.86376953125	-1370.797485351562	1330.90673828125	-607.3524780273438	-1570.521118164062	1268.541381835938	-553.8749389648438	-1532.7685546875	1376.999877929688	-724.6197509765625	-1442.978759765625	1389.418212890625	-770.0494384765625	-1458.10107421875	1272.475708007812	-841.5255126953125	-1427.584838867188	1074.138061523438	-859.250244140625	-1493.615234375	1053.406005859375	-809.8043212890625	-1324.812866210938	870.3110961914062	-796.7263793945312	-1373.77734375	845.6233520507812	-863.5717163085938	-1404.908813476562	969.990478515625	-862.8636474609375	-1357.049072265625	761.1381225585938	-850.9090576171875	-1470.971557617188	1390.96826171875	-458.9894409179688	-1485.988891601562	1325.997436523438	-400.4580993652344	-1476.715087890625	1063.028930664062	-362.0887145996094	-1499.825561523438	1053.710693359375	-453.4249877929688	-1342.882568359375	851.5049438476562	-395.8427124023438	-1388.530517578125	836.083984375	-332.6756896972656	-1450.501953125	997.7735595703125	-346.884765625	-1342.667114257812	672.6973876953125	-382.8436279296875	-1329.128540039062	743.4825439453125	-373.9565124511719	-1381.426879882812	749.4932861328125	-331.7214660644531	-1490.0439453125	1603.033325195312	-534.0907592773438	-1334.846313476562	1603.388671875	-658.4359741210938	-1356.661499023438	1609.801635742188	-538.2190551757812	-1477.6572265625	1592.905029296875	-695.2564697265625	-1473.076049804688	970.494873046875	-786.9876098632812	-1331.025634765625	973.1192016601562	-486.3845520019531	-1358.249633789062	966.0303344726562	-748.27294921875	-1435.581420898438	476.9174499511719	-771.681640625	-1439.578491210938	619.0350952148438	-781.3994750976562	-1528.773071289062	46.67494964599609	-731.779541015625	-1482.646728515625	246.4597778320312	-765.5675659179688	-1309.612060546875	44.31142807006836	-682.2723388671875	-1388.596801757812	43.54266738891602	-645.6144409179688	-1402.351196289062	42.51975631713867	-749.8792724609375	-1562.296020507812	42.18144989013672	-672.743408203125	-1437.596557617188	477.7555847167969	-443.6824035644531	-1391.10888671875	740.6929321289062	-428.6731567382812	-1494.083251953125	58.83670806884766	-466.9295654296875	-1432.411987304688	351.7589416503906	-456.1237487792969	-1315.787353515625	41.04312133789062	-536.2095336914062	-1393.936645507812	45.24798202514648	-563.114013671875	-1409.10107421875	50.18550109863281	-465.8453979492188	-1568.383911132812	45.63707733154297	-516.8923950195312	-1327.677001953125	682.3347778320312	-794.8922119140625	-1312.912963867188	766.4417114257812	-805.7083129882812	-1462.201171875	968.2169189453125	-428.6440124511719	nan	nan	nan	nan	nan	nan	nan	nan	nan	
3	0.02	-1549.270874023438	992.9715576171875	-541.232421875	-1557.3271484375	984.20263671875	-672.2849731445312	-1552.38720703125	1061.418334960938	-605.4843139648438	-1318.97900390625	1211.939697265625	-605.0578002929688	-1563.58251953125	1165.430786132812	-610.4358520507812	-1522.574096679688	1413.62060546875	-619.8929443359375	-1370.716064453125	1330.938354492188	-607.3504028320312	-1570.552612304688	1268.5458984375	-553.9050903320312	-1532.788696289062	1376.995727539062	-724.6563110351562	-1442.977661132812	1389.403076171875	-770.075927734375	-1458.120727539062	1272.4560546875	-841.5498046875	-1427.601684570312	1074.116455078125	-859.2473754882812	-1493.629028320312	1053.3857421875	-809.8015747070312	-1328.532592773438	868.1072998046875	-795.3365478515625	-1373.787109375	845.605712890625	-863.5565185546875	-1404.978637695312	969.9755249023438	-862.868408203125	-1357.131958007812	761.1210327148438	-850.8936157226562	-1470.994750976562	1390.969848632812	-459.0175476074219	-1486.051025390625	1326.01171875	-400.496337890625	-1476.771606445312	1063.030151367188	-362.1261291503906	-1499.913696289062	1053.719604492188	-453.4782409667969	-1342.935913085938	851.5030517578125	-395.8673400878906	-1388.622192382812	836.0663452148438	-332.7218627929688	-1450.572631835938	997.7735595703125	-346.9220275878906	-1342.638793945312	672.7063598632812	-382.8290710449219	-1329.18994140625	743.4819946289062	-373.9768371582031	-1381.434692382812	749.4644165039062	-331.728271484375	-1489.998657226562	1603.049438476562	-534.1417236328125	-1334.879150390625	1603.317016601562	-658.46533203125	-1356.5771484375	1609.801513671875	-538.2669067382812	-1477.606323242188	1592.906494140625	-695.307861328125	-1473.069091796875	970.4891967773438	-786.9984741210938	-1331.030395507812	973.1183471679688	-486.3900451660156	-1358.259399414062	966.0386352539062	-748.261962890625	-1435.584228515625	476.9186706542969	-771.6876220703125	-1439.580200195312	619.033203125	-781.400146484375	-1528.786010742188	46.68317794799805	-731.7762451171875	-1482.647705078125	246.4602966308594	-765.5676879882812	-1309.562744140625	44.31823348999023	-682.2612915039062	-1388.55419921875	43.55803680419922	-645.6079711914062	-1402.356201171875	42.5225715637207	-749.8807983398438	-1562.299438476562	42.17950820922852	-672.73779296875	-1437.608276367188	477.7646484375	-443.6953735351562	-1391.12646484375	740.7051391601562	-428.6642761230469	-1494.1181640625	58.82178115844727	-466.939697265625	-1432.426513671875	351.7561645507812	-456.1323547363281	-1315.771484375	41.03289794921875	-536.1947021484375	-1393.960693359375	45.24384307861328	-563.1039428710938	-1409.127075195312	50.19433212280273	-465.8496398925781	-1568.38427734375	45.63097381591797	-516.896240234375	-1327.701171875	682.33935546875	-794.8896484375	-1312.993408203125	766.4593505859375	-805.705810546875	-1462.2578125	968.2208862304688	-428.6681823730469	nan	nan	nan	nan	nan	nan	nan	nan	nan	
4	0.03	-1549.3095703125	992.9697875976562	-541.2600708007812	-1557.33544921875	984.1968383789062	-672.3087158203125	-1552.41943359375	1061.419921875	-605.5105590820312	-1318.948120117188	1211.9619140625	-605.0717163085938	-1563.634033203125	1165.434936523438	-610.4720458984375	-1522.587158203125	1413.62109375	-619.92431640625	-1370.63623046875	1330.970947265625	-607.3504638671875	-1570.589233398438	1268.550048828125	-553.940673828125	-1532.804077148438	1376.989990234375	-724.6953735351562	-1442.977783203125	1389.3876953125	-770.1051635742188	-1458.138916015625	1272.434814453125	-841.5757446289062	-1427.625610351562	1074.091796875	-859.2465209960938	-1493.646850585938	1053.362548828125	-809.7982788085938	-1331.99267578125	866.0612182617188	-794.0438842773438	-1373.805541992188	845.5845336914062	-863.54150390625	-1405.046875	969.9551391601562	-862.8713989257812	-1357.2294921875	761.1030883789062	-850.8798217773438	-1471.025512695312	1390.970947265625	-459.0501098632812	-1486.1083984375	1326.025756835938	-400.5349731445312	-1476.8271484375	1063.031127929688	-362.1628723144531	-1500.009155273438	1053.7275390625	-453.5364685058594	-1342.997924804688	851.4990844726562	-395.8898315429688	-1388.727905273438	836.049560546875	-332.7702026367188	-1450.66455078125	997.7744140625	-346.96728515625	-1342.648681640625	672.712158203125	-382.8335266113281	-1329.260498046875	743.4810180664062	-373.999267578125	-1381.525512695312	749.4478149414062	-331.7621765136719	-1489.942993164062	1603.072998046875	-534.2078857421875	-1334.91162109375	1603.242065429688	-658.5048828125	-1356.487915039062	1609.801513671875	-538.3238525390625	-1477.559692382812	1592.913696289062	-695.3736572265625	-1473.0654296875	970.4824829101562	-787.0099487304688	-1331.049682617188	973.115234375	-486.3970947265625	-1358.272338867188	966.0455932617188	-748.2501831054688	-1435.586547851562	476.9197082519531	-771.6937866210938	-1439.581665039062	619.02978515625	-781.4010620117188	-1528.799682617188	46.69195938110352	-731.77294921875	-1482.646240234375	246.4596862792969	-765.5679321289062	-1309.5224609375	44.32339859008789	-682.25244140625	-1388.525390625	43.56694793701172	-645.6030883789062	-1402.361938476562	42.5266227722168	-749.8821411132812	-1562.302856445312	42.18005752563477	-672.7344970703125	-1437.62255859375	477.7737731933594	-443.7100830078125	-1391.147094726562	740.718994140625	-428.6553039550781	-1494.14892578125	58.80865859985352	-466.947998046875	-1432.440673828125	351.7537231445312	-456.1405639648438	-1315.76416015625	41.02450561523438	-536.1854858398438	-1393.982055664062	45.24431610107422	-563.0986328125	-1409.1552734375	50.20518493652344	-465.8536987304688	-1568.38330078125	45.62546920776367	-516.8997192382812	-1327.72705078125	682.3407592773438	-794.8849487304688	-1313.111206054688	766.4829711914062	-805.709228515625	-1462.318603515625	968.2249145507812	-428.6931762695312	nan	nan	nan	nan	nan	nan	nan	nan	nan	
